<svg width="26" height="27" viewBox="0 0 26 27" fill="none" xmlns="http://www.w3.org/2000/svg">
<path d="M7.58333 23.25C6.98749 23.25 6.47761 23.038 6.05366 22.6141C5.62899 22.1894 5.41666 21.6792 5.41666 21.0833V7C5.10972 7 4.85225 6.89636 4.64425 6.68908C4.43697 6.48108 4.33333 6.22361 4.33333 5.91667C4.33333 5.60972 4.43697 5.35225 4.64425 5.14425C4.85225 4.93697 5.10972 4.83333 5.41666 4.83333H9.75C9.75 4.52639 9.854 4.26892 10.062 4.06092C10.2693 3.85364 10.5264 3.75 10.8333 3.75H15.1667C15.4736 3.75 15.7311 3.85364 15.9391 4.06092C16.1464 4.26892 16.25 4.52639 16.25 4.83333H20.5833C20.8903 4.83333 21.1474 4.93697 21.3547 5.14425C21.5627 5.35225 21.6667 5.60972 21.6667 5.91667C21.6667 6.22361 21.5627 6.48108 21.3547 6.68908C21.1474 6.89636 20.8903 7 20.5833 7V21.0833C20.5833 21.6792 20.3714 22.1894 19.9474 22.6141C19.5227 23.038 19.0125 23.25 18.4167 23.25H7.58333ZM7.58333 7V21.0833H18.4167V7H7.58333ZM9.75 17.8333C9.75 18.1403 9.854 18.3974 10.062 18.6047C10.2693 18.8127 10.5264 18.9167 10.8333 18.9167C11.1403 18.9167 11.3977 18.8127 11.6057 18.6047C11.813 18.3974 11.9167 18.1403 11.9167 17.8333V10.25C11.9167 9.94306 11.813 9.68558 11.6057 9.47758C11.3977 9.27031 11.1403 9.16667 10.8333 9.16667C10.5264 9.16667 10.2693 9.27031 10.062 9.47758C9.854 9.68558 9.75 9.94306 9.75 10.25V17.8333ZM14.0833 17.8333C14.0833 18.1403 14.1873 18.3974 14.3953 18.6047C14.6026 18.8127 14.8597 18.9167 15.1667 18.9167C15.4736 18.9167 15.7311 18.8127 15.9391 18.6047C16.1464 18.3974 16.25 18.1403 16.25 17.8333V10.25C16.25 9.94306 16.1464 9.68558 15.9391 9.47758C15.7311 9.27031 15.4736 9.16667 15.1667 9.16667C14.8597 9.16667 14.6026 9.27031 14.3953 9.47758C14.1873 9.68558 14.0833 9.94306 14.0833 10.25V17.8333Z" fill="white"/>
</svg>
