<svg width="10" height="18" viewBox="0 0 10 18" fill="none" xmlns="http://www.w3.org/2000/svg">
<path d="M4.02495 18V15.85C3.14162 15.65 2.37895 15.2667 1.73695 14.7C1.09495 14.1333 0.624285 13.3333 0.324951 12.3L2.17495 11.55C2.42495 12.35 2.79595 12.9583 3.28795 13.375C3.77995 13.7917 4.42562 14 5.22495 14C5.90829 14 6.48762 13.8457 6.96295 13.537C7.43828 13.2283 7.67562 12.7493 7.67495 12.1C7.67495 11.5167 7.49162 11.0543 7.12495 10.713C6.75828 10.3717 5.90828 9.984 4.57495 9.55C3.14162 9.1 2.15828 8.56233 1.62495 7.937C1.09162 7.31167 0.824951 6.54933 0.824951 5.65C0.824951 4.56667 1.17495 3.725 1.87495 3.125C2.57495 2.525 3.29162 2.18333 4.02495 2.1V0H6.02495V2.1C6.85828 2.23333 7.54595 2.53767 8.08795 3.013C8.62995 3.48833 9.02562 4.06733 9.27495 4.75L7.42495 5.55C7.22495 5.01667 6.94162 4.61667 6.57495 4.35C6.20828 4.08333 5.70828 3.95 5.07495 3.95C4.34162 3.95 3.78328 4.11267 3.39995 4.438C3.01662 4.76333 2.82495 5.16733 2.82495 5.65C2.82495 6.2 3.07495 6.63333 3.57495 6.95C4.07495 7.26667 4.94162 7.6 6.17495 7.95C7.32495 8.28333 8.19595 8.81267 8.78795 9.538C9.37995 10.2633 9.67562 11.1007 9.67495 12.05C9.67495 13.2333 9.32495 14.1333 8.62495 14.75C7.92495 15.3667 7.05828 15.75 6.02495 15.9V18H4.02495Z" fill="#F8F8F8"/>
</svg>
