<svg width="25" height="24" viewBox="0 0 25 24" fill="none" xmlns="http://www.w3.org/2000/svg">
<path fill-rule="evenodd" clip-rule="evenodd" d="M3.33331 3H18.8333V5.5H17.8333V4H4.33331V15.5H15.0268V16.5H3.33331V3ZM18.3333 9.5C18.7311 9.5 19.1127 9.34196 19.394 9.06066C19.6753 8.77936 19.8333 8.39782 19.8333 8C19.8333 7.60218 19.6753 7.22064 19.394 6.93934C19.1127 6.65804 18.7311 6.5 18.3333 6.5C17.9355 6.5 17.554 6.65804 17.2727 6.93934C16.9913 7.22064 16.8333 7.60218 16.8333 8C16.8333 8.39782 16.9913 8.77936 17.2727 9.06066C17.554 9.34196 17.9355 9.5 18.3333 9.5ZM19.3488 10.505C19.9983 10.505 20.5123 10.797 20.8488 11.248C21.1633 11.6705 21.2963 12.193 21.3263 12.6755C21.3557 13.1704 21.2883 13.6664 21.1278 14.1355C20.9778 14.5705 20.7243 15.0205 20.3333 15.329V20.25C20.3337 20.4384 20.2631 20.6201 20.1356 20.7589C20.0081 20.8976 19.8331 20.9833 19.6453 20.9989C19.4575 21.0144 19.2707 20.9587 19.1221 20.8429C18.9735 20.727 18.874 20.5594 18.8433 20.3735L18.1983 16.5H18.0493L17.3203 20.388C17.2857 20.5715 17.1839 20.7355 17.0348 20.8479C16.8856 20.9603 16.6999 21.013 16.514 20.9958C16.3281 20.9785 16.1553 20.8925 16.0294 20.7546C15.9035 20.6167 15.8336 20.4367 15.8333 20.25V13.1165C15.7333 13.2688 15.6347 13.422 15.5373 13.576L15.4983 13.6375L15.4883 13.6535L15.4858 13.658C15.4184 13.7662 15.3246 13.8554 15.2131 13.9173C15.1017 13.9791 14.9763 14.0116 14.8488 14.0115H12.3488C12.1499 14.0115 11.9591 13.9325 11.8185 13.7918C11.6778 13.6512 11.5988 13.4604 11.5988 13.2615C11.5988 13.0626 11.6778 12.8718 11.8185 12.7312C11.9591 12.5905 12.1499 12.5115 12.3488 12.5115H14.4373C14.5588 12.3235 14.7188 12.0795 14.8868 11.8345C15.0618 11.579 15.2548 11.3085 15.4268 11.0965C15.5103 10.993 15.6038 10.885 15.6978 10.7965C15.7438 10.753 15.8078 10.6965 15.8858 10.6465C16.0235 10.5561 16.1842 10.5072 16.3488 10.5055L19.3488 10.505Z" fill="white"/>
</svg>
