<svg width="24" height="14" viewBox="0 0 24 14" fill="none" xmlns="http://www.w3.org/2000/svg">
<path d="M20.25 6C20.4375 6 20.6211 6.03125 20.8008 6.09375C20.9805 6.15625 21.1445 6.23828 21.293 6.33984C21.4414 6.44141 21.5703 6.57031 21.6797 6.72656C21.7891 6.88281 21.8828 7.04688 21.9609 7.21875C22 7.32812 22.0781 7.53125 22.1953 7.82812C22.3125 8.125 22.4492 8.46875 22.6055 8.85938C22.7617 9.25 22.918 9.66016 23.0742 10.0898C23.2305 10.5195 23.3789 10.9219 23.5195 11.2969C23.6602 11.6719 23.7734 11.9922 23.8594 12.2578C23.9453 12.5234 23.9922 12.6875 24 12.75C24 12.9609 23.9258 13.1367 23.7773 13.2773C23.6289 13.418 23.4531 13.4922 23.25 13.5H9.75C9.54688 13.5 9.37109 13.4297 9.22266 13.2891C9.07422 13.1484 9 12.9688 9 12.75C9 12.6562 9.03125 12.5078 9.09375 12.3047C9.15625 12.1016 9.23438 11.8828 9.32812 11.6484C9.42188 11.4141 9.51172 11.1914 9.59766 10.9805C9.68359 10.7695 9.75 10.6094 9.79688 10.5H5.25C5.04688 10.5 4.87109 10.4297 4.72266 10.2891C4.57422 10.1484 4.5 9.96875 4.5 9.75C4.5 9.65625 4.53125 9.50781 4.59375 9.30469C4.65625 9.10156 4.73438 8.88281 4.82812 8.64844C4.92188 8.41406 5.01172 8.19141 5.09766 7.98047C5.18359 7.76953 5.25 7.60938 5.29688 7.5H0.75C0.546875 7.5 0.371094 7.42969 0.222656 7.28906C0.0742188 7.14844 0 6.96875 0 6.75C0 6.6875 0.0429688 6.52344 0.128906 6.25781C0.214844 5.99219 0.328125 5.67188 0.46875 5.29688C0.609375 4.92188 0.761719 4.51953 0.925781 4.08984C1.08984 3.66016 1.24609 3.24609 1.39453 2.84766C1.54297 2.44922 1.67578 2.10547 1.79297 1.81641C1.91016 1.52734 1.99219 1.32031 2.03906 1.19531C2.17188 0.84375 2.39453 0.558594 2.70703 0.339844C3.01953 0.121094 3.36719 0.0078125 3.75 0H11.25C11.4375 0 11.6211 0.03125 11.8008 0.09375C11.9805 0.15625 12.1445 0.238281 12.293 0.339844C12.4414 0.441406 12.5703 0.570312 12.6797 0.726562C12.7891 0.882812 12.8828 1.04688 12.9609 1.21875L13.6406 3H15.75C15.9375 3 16.1211 3.03125 16.3008 3.09375C16.4805 3.15625 16.6445 3.23828 16.793 3.33984C16.9414 3.44141 17.0703 3.57031 17.1797 3.72656C17.2891 3.88281 17.3828 4.04688 17.4609 4.21875L18.1406 6H20.25ZM5.85938 6L6.53906 4.19531C6.67188 3.84375 6.89453 3.55859 7.20703 3.33984C7.51953 3.12109 7.86719 3.00781 8.25 3H12.0352L11.5547 1.72266C11.5391 1.67578 11.5 1.62891 11.4375 1.58203C11.375 1.53516 11.3125 1.50781 11.25 1.5H3.75C3.69531 1.5 3.63672 1.52344 3.57422 1.57031C3.51172 1.61719 3.47266 1.66406 3.45703 1.71094L1.82812 6H5.85938ZM10.3594 9L11.0391 7.19531C11.1719 6.84375 11.3945 6.55859 11.707 6.33984C12.0195 6.12109 12.3672 6.00781 12.75 6H16.5352L16.0547 4.72266C16.0391 4.67578 16 4.62891 15.9375 4.58203C15.875 4.53516 15.8125 4.50781 15.75 4.5H8.25C8.19531 4.5 8.13672 4.52344 8.07422 4.57031C8.01172 4.61719 7.97266 4.66406 7.95703 4.71094C7.68359 5.42969 7.41406 6.14453 7.14844 6.85547C6.88281 7.56641 6.60938 8.28125 6.32812 9H10.3594ZM22.1719 12L20.5547 7.72266C20.5391 7.67578 20.5 7.62891 20.4375 7.58203C20.375 7.53516 20.3125 7.50781 20.25 7.5H12.75C12.6953 7.5 12.6367 7.52344 12.5742 7.57031C12.5117 7.61719 12.4727 7.66406 12.457 7.71094L11.9648 9L11.4023 10.5C11.2148 11 11.0234 11.5 10.8281 12H22.1719Z" fill="white"/>
</svg>
