<svg width="34" height="34" viewBox="0 0 34 34" fill="none" xmlns="http://www.w3.org/2000/svg">
<path d="M33.852 27.27L32.1133 25.9375C32.1458 25.6613 32.1783 25.4013 32.1783 25.125C32.1783 24.8488 32.162 24.5888 32.1133 24.3125L33.8358 22.98C33.982 22.85 34.0308 22.6388 33.9333 22.46L32.3083 19.6488C32.2108 19.4375 31.9995 19.4375 31.7883 19.4375L29.7895 20.25C29.3508 19.9575 28.912 19.6813 28.4083 19.4863L28.0995 17.3413C28.0833 17.1463 27.9045 17 27.7258 17H24.4758C24.2645 17 24.0858 17.1463 24.0533 17.3413L23.7445 19.4863C23.257 19.6975 22.7858 19.9575 22.3633 20.25L20.3483 19.4375C20.1695 19.4375 19.9583 19.4375 19.8445 19.6488L18.2195 22.46C18.122 22.6388 18.1545 22.85 18.317 22.98L20.0395 24.3125C20.007 24.5888 19.9908 24.8488 19.9908 25.125C19.9908 25.4013 20.007 25.6613 20.0395 25.9375L18.317 27.27C18.1708 27.4 18.122 27.6113 18.2195 27.79L19.8445 30.6013C19.942 30.8125 20.1533 30.8125 20.3483 30.8125L22.3633 30C22.7858 30.2925 23.2408 30.5688 23.7445 30.7638L24.0533 32.9088C24.0858 33.1038 24.2483 33.25 24.4758 33.25H27.7258C27.9045 33.25 28.0833 33.1038 28.1158 32.9088L28.4245 30.7638C28.912 30.5525 29.3508 30.2925 29.7895 30L31.7883 30.8125C31.9995 30.8125 32.2108 30.8125 32.3245 30.6013L33.9495 27.79C34.047 27.6113 33.9983 27.4 33.852 27.27ZM26.1008 27.5625C24.7358 27.5625 23.6633 26.4738 23.6633 25.125C23.6633 23.7763 24.752 22.6875 26.1008 22.6875C27.4495 22.6875 28.5383 23.7763 28.5383 25.125C28.5383 26.4738 27.4495 27.5625 26.1008 27.5625ZM1.72578 0.75C1.36828 0.75 1.02703 0.88 0.718282 1.1075C0.019532 1.66 -0.110468 2.68375 0.442032 3.3825L9.80203 15.375H9.85078V24.9138C9.78578 25.385 9.94828 25.8888 10.322 26.2625L13.5883 29.5288C14.157 30.0975 15.0345 30.13 15.6683 29.675C15.0508 28.2288 14.7258 26.685 14.7258 25.125C14.7258 23.0613 15.2945 21.0625 16.3508 19.275V15.375H16.3995L25.7595 3.3825C26.312 2.68375 26.182 1.66 25.4833 1.1075C25.1745 0.88 24.8333 0.75 24.4758 0.75H1.72578Z" fill="#1A2876"/>
</svg>
