<svg width="17" height="17" viewBox="0 0 17 17" fill="none" xmlns="http://www.w3.org/2000/svg">
<path d="M13.2809 2.15019C13.5929 2.18019 13.9559 2.34969 14.3039 2.69769C14.6519 3.04569 14.8229 3.40869 14.8499 3.72069C14.8754 4.00869 14.7869 4.33569 14.4479 4.67469C13.6529 5.46969 12.2954 6.35469 10.6799 7.40469L10.5854 7.46469L9.53544 6.41619L9.59694 6.32169C10.6469 4.70619 11.5319 3.34869 12.3269 2.55369C12.6659 2.21469 12.9929 2.12469 13.2809 2.15019ZM11.6699 8.55069C13.1849 7.56669 14.6234 6.62169 15.5084 5.73669C16.1324 5.11269 16.4114 4.35969 16.3439 3.59019C16.2779 2.84319 15.8939 2.16969 15.3644 1.64019C14.8334 1.10919 14.1599 0.725188 13.4144 0.659188C12.6434 0.590188 11.8904 0.869188 11.2664 1.49469C10.3814 2.37969 9.43644 3.81669 8.45094 5.33319L6.87894 3.75819C6.60035 3.47948 6.26958 3.2584 5.90552 3.10756C5.54147 2.95672 5.15126 2.87908 4.75719 2.87908C4.36312 2.87908 3.97292 2.95672 3.60886 3.10756C3.2448 3.2584 2.91403 3.47948 2.63544 3.75819L1.57494 4.82019C1.29373 5.10148 1.13576 5.48294 1.13576 5.88069C1.13576 6.27843 1.29373 6.6599 1.57494 6.94119L0.77994 7.73619C0.605778 7.9103 0.467623 8.11702 0.373364 8.34454C0.279106 8.57206 0.230591 8.81592 0.230591 9.06219C0.230591 9.30846 0.279106 9.55232 0.373364 9.77983C0.467623 10.0074 0.605778 10.2141 0.77994 10.3882L6.61344 16.2217C6.78756 16.3959 6.99428 16.534 7.2218 16.6283C7.44931 16.7225 7.69317 16.771 7.93944 16.771C8.18571 16.771 8.42957 16.7225 8.65709 16.6283C8.8846 16.534 9.09132 16.3959 9.26544 16.2217L10.0604 15.4267C10.3417 15.7079 10.7232 15.8659 11.1209 15.8659C11.5187 15.8659 11.9001 15.7079 12.1814 15.4267L13.2419 14.3647C13.8044 13.8021 14.1203 13.0392 14.1203 12.2437C14.1203 11.4482 13.8044 10.6853 13.2419 10.1227L11.6699 8.55069ZM2.63544 8.00319L8.99994 14.3647L8.20494 15.1597C8.17011 15.1946 8.12873 15.2223 8.08317 15.2412C8.03761 15.2601 7.98877 15.2699 7.93944 15.2699C7.89012 15.2699 7.84127 15.2601 7.79571 15.2412C7.75016 15.2223 7.70878 15.1946 7.67394 15.1597L1.84044 9.32919C1.80552 9.29435 1.77781 9.25297 1.75891 9.20741C1.74 9.16186 1.73027 9.11301 1.73027 9.06369C1.73027 9.01436 1.74 8.96552 1.75891 8.91996C1.77781 8.8744 1.80552 8.83302 1.84044 8.79819L2.63544 8.00319Z" fill="#0d6efd"/>
</svg>
