<svg width="24" height="24" viewBox="0 0 24 24" fill="none" xmlns="http://www.w3.org/2000/svg">
<path d="M19.625 21L18.225 19.6L19.8 18H15.625V16H19.8L18.225 14.4L19.625 13L23.625 17L19.625 21ZM8.375 15C9.30833 15 10.15 14.7707 10.9 14.312C11.65 13.8533 12.2417 13.2493 12.675 12.5C12.0917 12.0167 11.4333 11.6457 10.7 11.387C9.96667 11.1283 9.19167 10.9993 8.375 11C7.55833 11 6.78333 11.1293 6.05 11.388C5.31667 11.6467 4.65833 12.0173 4.075 12.5C4.50833 13.25 5.1 13.8543 5.85 14.313C6.6 14.7717 7.44167 15.0007 8.375 15ZM8.375 10C8.925 10 9.396 9.804 9.788 9.412C10.18 9.02 10.3753 8.54933 10.374 8C10.374 7.45 10.178 6.979 9.786 6.587C9.394 6.195 8.92367 5.99933 8.375 6C7.825 6 7.354 6.196 6.962 6.588C6.57 6.98 6.37467 7.45067 6.376 8C6.376 8.55 6.572 9.021 6.964 9.413C7.356 9.805 7.82633 10.0007 8.375 10ZM8.375 19.35C10.4083 17.4833 11.9167 15.7873 12.9 14.262C13.8833 12.7367 14.375 11.3827 14.375 10.2C14.375 8.38333 13.7957 6.896 12.637 5.738C11.4783 4.58 10.0577 4.00067 8.375 4C6.69167 4 5.27067 4.57933 4.112 5.738C2.95333 6.89667 2.37433 8.384 2.375 10.2C2.375 11.3833 2.86667 12.7377 3.85 14.263C4.83333 15.7883 6.34167 17.484 8.375 19.35ZM8.375 22C5.69167 19.7167 3.68767 17.596 2.363 15.638C1.03833 13.68 0.375667 11.8673 0.375 10.2C0.375 7.7 1.17933 5.70833 2.788 4.225C4.39667 2.74167 6.25867 2 8.374 2C10.4907 2 12.3533 2.74167 13.962 4.225C15.5707 5.70833 16.3747 7.7 16.374 10.2C16.374 11.8667 15.7113 13.6793 14.386 15.638C13.0607 17.5967 11.057 19.7173 8.375 22Z" fill="#0D6EFD"/>
</svg>
