<svg width="18" height="22" viewBox="0 0 18 22" fill="none" xmlns="http://www.w3.org/2000/svg">
<path d="M5.74996 3.4165H3.58329C3.00866 3.4165 2.45756 3.64478 2.05123 4.05111C1.6449 4.45743 1.41663 5.00853 1.41663 5.58317V18.5832C1.41663 19.1578 1.6449 19.7089 2.05123 20.1152C2.45756 20.5216 3.00866 20.7498 3.58329 20.7498H14.4166C14.9913 20.7498 15.5424 20.5216 15.9487 20.1152C16.355 19.7089 16.5833 19.1578 16.5833 18.5832V5.58317C16.5833 5.00853 16.355 4.45743 15.9487 4.05111C15.5424 3.64478 14.9913 3.4165 14.4166 3.4165H12.25" stroke="#0d6efd" stroke-width="2" stroke-linecap="round" stroke-linejoin="round"/>
<path d="M5.75 11H12.25M5.75 15.3333H12.25M5.75 3.41667C5.75 2.84203 5.97827 2.29093 6.3846 1.8846C6.79093 1.47827 7.34203 1.25 7.91667 1.25H10.0833C10.658 1.25 11.2091 1.47827 11.6154 1.8846C12.0217 2.29093 12.25 2.84203 12.25 3.41667C12.25 3.9913 12.0217 4.5424 11.6154 4.94873C11.2091 5.35506 10.658 5.58333 10.0833 5.58333H7.91667C7.34203 5.58333 6.79093 5.35506 6.3846 4.94873C5.97827 4.5424 5.75 3.9913 5.75 3.41667Z" stroke="#0d6efd" stroke-width="2" stroke-linecap="round" stroke-linejoin="round"/>
</svg>
