<svg width="22" height="22" viewBox="0 0 22 22" fill="none" xmlns="http://www.w3.org/2000/svg">
<path d="M20 0.5H11C10.6023 0.500397 10.221 0.65856 9.93978 0.939778C9.65856 1.221 9.5004 1.6023 9.5 2V9.5H2C1.6023 9.5004 1.221 9.65856 0.939778 9.93978C0.65856 10.221 0.500397 10.6023 0.5 11V21.5H21.5V2C21.4996 1.6023 21.3414 1.221 21.0602 0.939778C20.779 0.65856 20.3977 0.500397 20 0.5ZM5.75 20V14.75H8.75V20H5.75ZM20 20H10.25V14C10.25 13.8011 10.171 13.6103 10.0303 13.4697C9.88968 13.329 9.69891 13.25 9.5 13.25H5C4.80109 13.25 4.61032 13.329 4.46967 13.4697C4.32902 13.6103 4.25 13.8011 4.25 14V20H2V11H11V2H20V20Z" fill="#0d6efd"/>
</svg>
