<svg width="24" height="14" viewBox="0 0 24 14" fill="none" xmlns="http://www.w3.org/2000/svg">
<path d="M20.25 6.5C20.4375 6.5 20.6211 6.53125 20.8008 6.59375C20.9805 6.65625 21.1445 6.73828 21.293 6.83984C21.4414 6.94141 21.5703 7.07031 21.6797 7.22656C21.7891 7.38281 21.8828 7.54688 21.9609 7.71875C22 7.82812 22.0781 8.03125 22.1953 8.32812C22.3125 8.625 22.4492 8.96875 22.6055 9.35938C22.7617 9.75 22.918 10.1602 23.0742 10.5898C23.2305 11.0195 23.3789 11.4219 23.5195 11.7969C23.6602 12.1719 23.7734 12.4922 23.8594 12.7578C23.9453 13.0234 23.9922 13.1875 24 13.25C24 13.4609 23.9258 13.6367 23.7773 13.7773C23.6289 13.918 23.4531 13.9922 23.25 14H9.75C9.54688 14 9.37109 13.9297 9.22266 13.7891C9.07422 13.6484 9 13.4688 9 13.25C9 13.1562 9.03125 13.0078 9.09375 12.8047C9.15625 12.6016 9.23438 12.3828 9.32812 12.1484C9.42188 11.9141 9.51172 11.6914 9.59766 11.4805C9.68359 11.2695 9.75 11.1094 9.79688 11H5.25C5.04688 11 4.87109 10.9297 4.72266 10.7891C4.57422 10.6484 4.5 10.4688 4.5 10.25C4.5 10.1562 4.53125 10.0078 4.59375 9.80469C4.65625 9.60156 4.73438 9.38281 4.82812 9.14844C4.92188 8.91406 5.01172 8.69141 5.09766 8.48047C5.18359 8.26953 5.25 8.10938 5.29688 8H0.75C0.546875 8 0.371094 7.92969 0.222656 7.78906C0.0742188 7.64844 0 7.46875 0 7.25C0 7.1875 0.0429688 7.02344 0.128906 6.75781C0.214844 6.49219 0.328125 6.17188 0.46875 5.79688C0.609375 5.42188 0.761719 5.01953 0.925781 4.58984C1.08984 4.16016 1.24609 3.74609 1.39453 3.34766C1.54297 2.94922 1.67578 2.60547 1.79297 2.31641C1.91016 2.02734 1.99219 1.82031 2.03906 1.69531C2.17188 1.34375 2.39453 1.05859 2.70703 0.839844C3.01953 0.621094 3.36719 0.507812 3.75 0.5H11.25C11.4375 0.5 11.6211 0.53125 11.8008 0.59375C11.9805 0.65625 12.1445 0.738281 12.293 0.839844C12.4414 0.941406 12.5703 1.07031 12.6797 1.22656C12.7891 1.38281 12.8828 1.54688 12.9609 1.71875L13.6406 3.5H15.75C15.9375 3.5 16.1211 3.53125 16.3008 3.59375C16.4805 3.65625 16.6445 3.73828 16.793 3.83984C16.9414 3.94141 17.0703 4.07031 17.1797 4.22656C17.2891 4.38281 17.3828 4.54688 17.4609 4.71875L18.1406 6.5H20.25ZM5.85938 6.5L6.53906 4.69531C6.67188 4.34375 6.89453 4.05859 7.20703 3.83984C7.51953 3.62109 7.86719 3.50781 8.25 3.5H12.0352L11.5547 2.22266C11.5391 2.17578 11.5 2.12891 11.4375 2.08203C11.375 2.03516 11.3125 2.00781 11.25 2H3.75C3.69531 2 3.63672 2.02344 3.57422 2.07031C3.51172 2.11719 3.47266 2.16406 3.45703 2.21094L1.82812 6.5H5.85938ZM10.3594 9.5L11.0391 7.69531C11.1719 7.34375 11.3945 7.05859 11.707 6.83984C12.0195 6.62109 12.3672 6.50781 12.75 6.5H16.5352L16.0547 5.22266C16.0391 5.17578 16 5.12891 15.9375 5.08203C15.875 5.03516 15.8125 5.00781 15.75 5H8.25C8.19531 5 8.13672 5.02344 8.07422 5.07031C8.01172 5.11719 7.97266 5.16406 7.95703 5.21094C7.68359 5.92969 7.41406 6.64453 7.14844 7.35547C6.88281 8.06641 6.60938 8.78125 6.32812 9.5H10.3594ZM22.1719 12.5L20.5547 8.22266C20.5391 8.17578 20.5 8.12891 20.4375 8.08203C20.375 8.03516 20.3125 8.00781 20.25 8H12.75C12.6953 8 12.6367 8.02344 12.5742 8.07031C12.5117 8.11719 12.4727 8.16406 12.457 8.21094L11.9648 9.5L11.4023 11C11.2148 11.5 11.0234 12 10.8281 12.5H22.1719Z" fill="#0d6efd"/>
</svg>
